<svg xmlns="http://www.w3.org/2000/svg" width="1237" height="239.33795" fill="none" viewBox="0 0 1237 239.33795"><g clip-path="url(#a)" transform="scale(4.23828)"><g fill="#fff" clip-path="url(#b)"><path d="M61.796 4.73A59.415 59.415 0 0 0 46.746 0a44.128 44.128 0 0 0-1.928 4.003c-5.612-.844-11.172-.844-16.68 0A42.783 42.783 0 0 0 26.188 0a59.218 59.218 0 0 0-15.062 4.741C1.6 19.134-.981 33.17.31 47.006c6.317 4.718 12.44 7.584 18.458 9.459a45.906 45.906 0 0 0 3.953-6.511 38.872 38.872 0 0 1-6.225-3.03 30.957 30.957 0 0 0 1.526-1.207c12.004 5.614 25.046 5.614 36.906 0 .499.416 1.01.82 1.526 1.207a38.775 38.775 0 0 1-6.237 3.036 45.704 45.704 0 0 0 3.953 6.51c6.025-1.875 12.153-4.74 18.47-9.464 1.515-16.04-2.588-29.946-10.844-42.277Zm-37.44 33.767c-3.603 0-6.558-3.364-6.558-7.46 0-4.097 2.892-7.467 6.559-7.467 3.666 0 6.621 3.364 6.558 7.467.006 4.096-2.892 7.46-6.558 7.46zm24.237 0c-3.603 0-6.558-3.364-6.558-7.46 0-4.097 2.892-7.467 6.558-7.467 3.667 0 6.622 3.364 6.558 7.467 0 4.096-2.891 7.46-6.558 7.46zM98.03 14.406h15.663c3.776 0 6.966.604 9.583 1.805 2.61 1.201 4.567 2.878 5.864 5.022 1.296 2.145 1.95 4.6 1.95 7.367 0 2.707-.677 5.163-2.031 7.36-1.354 2.204-3.414 3.945-6.185 5.228-2.771 1.283-6.203 1.928-10.305 1.928h-14.54Zm14.378 21.414c2.542 0 4.499-.65 5.864-1.946 1.366-1.3 2.049-3.07 2.049-5.315 0-2.08-.609-3.74-1.825-4.982s-3.058-1.869-5.52-1.869h-4.9V35.82zM154.541 43.081c-2.169-.574-4.126-1.407-5.864-2.502v-6.81c1.314 1.037 3.075 1.893 5.284 2.567 2.209.668 4.344 1.002 6.409 1.002.964 0 1.693-.13 2.186-.387.494-.258.741-.568.741-.926 0-.41-.132-.75-.402-1.025-.27-.276-.792-.504-1.566-.698l-4.82-1.107c-2.76-.657-4.717-1.565-5.881-2.731-1.165-1.16-1.745-2.684-1.745-4.571 0-1.589.505-2.966 1.527-4.144 1.015-1.178 2.461-2.086 4.337-2.725 1.877-.644 4.068-.967 6.587-.967 2.249 0 4.309.246 6.186.739 1.876.492 3.425 1.119 4.659 1.887v6.44c-1.263-.767-2.709-1.371-4.361-1.828a19.138 19.138 0 0 0-5.084-.674c-2.519 0-3.775.44-3.775 1.313 0 .41.195.715.585.92.39.205 1.107.416 2.146.638l4.016.739c2.623.463 4.579 1.277 5.864 2.438 1.286 1.16 1.928 2.877 1.928 5.151 0 2.49-1.061 4.466-3.19 5.93-2.129 1.466-5.147 2.198-9.06 2.198a26.36 26.36 0 0 1-6.707-.867zM182.978 42.22c-2.3-1.15-4.039-2.708-5.198-4.677-1.159-1.97-1.744-4.185-1.744-6.646 0-2.461.602-4.665 1.807-6.605 1.205-1.94 2.972-3.463 5.302-4.57 2.329-1.108 5.112-1.66 8.354-1.66 4.016 0 7.35.862 10.001 2.585v7.507c-.935-.656-2.026-1.19-3.271-1.6-1.245-.41-2.576-.615-3.999-.615-2.49 0-4.435.463-5.841 1.395-1.406.932-2.111 2.145-2.111 3.65 0 1.478.682 2.685 2.048 3.634 1.366.944 3.345 1.419 5.944 1.419 1.337 0 2.657-.2 3.959-.592 1.297-.399 2.416-.885 3.351-1.46v7.261c-2.943 1.805-6.357 2.708-10.242 2.708-3.27-.012-6.059-.586-8.36-1.735zM211.518 42.22c-2.318-1.15-4.085-2.72-5.302-4.718-1.216-1.999-1.83-4.225-1.83-6.687 0-2.461.608-4.659 1.83-6.587s2.978-3.44 5.285-4.536c2.3-1.096 5.049-1.64 8.233-1.64 3.185 0 5.933.544 8.234 1.64 2.301 1.096 4.057 2.596 5.262 4.513 1.205 1.916 1.807 4.114 1.807 6.604 0 2.462-.602 4.689-1.807 6.687-1.205 1.998-2.967 3.569-5.285 4.718-2.318 1.148-5.055 1.723-8.216 1.723-3.162 0-5.899-.569-8.211-1.717zm12.204-7.28c.976-.995 1.469-2.314 1.469-3.955 0-1.64-.488-2.948-1.469-3.915-.975-.972-2.307-1.459-3.993-1.459-1.716 0-3.059.487-4.04 1.46-.975.972-1.463 2.273-1.463 3.914s.488 2.96 1.463 3.956c.976.996 2.324 1.5 4.04 1.5 1.686-.006 3.018-.504 3.993-1.5zM259.17 19.575v8.86c-1.021-.685-2.341-1.025-3.976-1.025-2.141 0-3.793.662-4.941 1.987-1.153 1.324-1.727 3.387-1.727 6.177v7.548h-9.84V19.124h9.64v7.63c.533-2.79 1.4-4.847 2.593-6.177 1.188-1.324 2.725-1.987 4.596-1.987 1.417 0 2.634.329 3.655.985zM291.864 13.586v29.536h-9.841v-5.374c-.832 2.022-2.094 3.563-3.792 4.618-1.699 1.05-3.799 1.577-6.289 1.577-2.226 0-4.165-.551-5.824-1.659-1.658-1.108-2.937-2.625-3.838-4.553-.895-1.929-1.349-4.109-1.349-6.546-.028-2.515.448-4.77 1.429-6.77.976-1.998 2.358-3.556 4.137-4.676 1.779-1.12 3.81-1.682 6.088-1.682 4.688 0 7.832 2.08 9.438 6.236V13.586Zm-11.309 21.19c1.004-.995 1.503-2.29 1.503-3.873 0-1.53-.488-2.778-1.463-3.733-.976-.955-2.313-1.436-3.994-1.436-1.658 0-2.983.487-3.976 1.46-.993.972-1.486 2.232-1.486 3.791 0 1.56.493 2.83 1.486 3.815.993.985 2.301 1.477 3.936 1.477 1.658-.006 2.989-.504 3.994-1.5zM139.382 21.679c2.709 0 4.906-2.015 4.906-4.501s-2.197-4.5-4.906-4.5c-2.71 0-4.906 2.014-4.906 4.5 0 2.485 2.196 4.5 4.906 4.5zM134.472 24.779c3.006 1.324 6.736 1.383 9.811 0V43.25h-9.811z"/></g></g><defs><clipPath id="a"><path fill="#fff" d="M0 0h292v56.47H0z"/></clipPath><clipPath id="b"><path fill="#fff" d="M0 0h292v56.47H0z"/></clipPath></defs></svg>
